<?xml version="1.0" standalone="no"?>
<!DOCTYPE svg PUBLIC "-//W3C//DTD SVG 20010904//EN"
 "http://www.w3.org/TR/2001/REC-SVG-20010904/DTD/svg10.dtd">
<svg version="1.0" xmlns="http://www.w3.org/2000/svg"
 width="340.000000pt" height="339.000000pt" viewBox="0 0 340.000000 339.000000"
 preserveAspectRatio="xMidYMid meet">

<g transform="translate(0.000000,339.000000) scale(0.100000,-0.100000)"
fill="#000000" stroke="none">
<path d="M425 3054 c-73 -26 -137 -83 -175 -158 l-35 -69 0 -1132 0 -1132 35
-69 c25 -50 49 -79 85 -106 96 -73 3 -68 1367 -68 1188 0 1229 1 1278 19 78
30 134 81 172 159 l33 67 0 1130 0 1130 -33 67 c-38 78 -94 129 -172 159 -49
18 -89 19 -1283 18 -1040 0 -1238 -3 -1272 -15z m650 -325 c210 -78 263 -371
95 -523 -65 -58 -121 -80 -210 -80 -130 0 -234 66 -289 183 -21 45 -26 70 -25
131 0 89 22 146 80 210 84 94 225 125 349 79z m760 -7 c117 -56 179 -155 179
-287 1 -73 -2 -86 -35 -145 -127 -232 -453 -223 -569 15 -32 68 -34 188 -3
256 31 68 90 128 158 161 49 23 73 28 135 28 62 0 86 -5 135 -28z m746 0 c58
-28 123 -93 152 -152 18 -36 22 -62 22 -135 0 -81 -3 -95 -30 -144 -110 -199
-367 -229 -518 -61 -25 27 -52 71 -61 97 -18 53 -21 150 -6 205 24 84 120 182
204 208 56 17 186 7 237 -18z m-1487 -741 c60 -29 117 -85 148 -143 19 -36 23
-59 23 -138 0 -111 -19 -162 -86 -229 -66 -66 -119 -86 -224 -86 -75 0 -98 4
-135 24 -61 32 -116 86 -148 146 -23 43 -27 62 -27 140 0 75 4 97 24 135 42
81 115 143 201 171 50 16 172 5 224 -20z m734 -1 c26 -12 68 -42 94 -67 63
-62 91 -128 92 -219 2 -219 -219 -372 -427 -294 -76 29 -130 79 -169 157 -60
121 -39 255 55 351 95 98 233 126 355 72z m757 -2 c60 -31 114 -86 146 -148
20 -38 24 -60 24 -135 0 -78 -4 -97 -27 -140 -32 -60 -87 -114 -148 -146 -65
-34 -204 -34 -272 -1 -57 28 -122 92 -150 146 -25 49 -35 172 -19 232 24 88
104 173 199 209 60 23 185 14 247 -17z m-1489 -741 c67 -34 138 -114 160 -179
23 -69 16 -187 -15 -247 -58 -112 -170 -175 -301 -169 -90 4 -149 29 -209 90
-67 68 -86 118 -86 223 0 78 4 97 27 141 34 64 104 127 172 154 72 29 182 23
252 -13z m736 5 c60 -26 127 -93 158 -157 32 -68 34 -188 3 -256 -30 -67 -86
-124 -155 -159 -123 -61 -281 -31 -372 70 -58 64 -80 121 -80 210 -1 142 77
255 209 303 65 23 172 18 237 -11z m743 -6 c67 -30 121 -85 154 -155 34 -73
36 -182 4 -252 -28 -63 -87 -125 -147 -157 -44 -23 -63 -27 -141 -27 -107 0
-164 23 -232 92 -76 79 -105 216 -67 326 19 56 92 141 145 168 88 45 194 47
284 5z"/>
</g>
</svg>
